<svg id="Capa_1" enable-background="new 0 0 512.5 512.5" height="512" viewBox="0 0 512.5 512.5" width="512" xmlns="http://www.w3.org/2000/svg"><g><path d="m227.804 252.854c-12.028-18.413-31.177-31.767-53.508-36.125-15.231 10.623-33.734 16.864-53.671 16.864-19.932 0-38.431-6.238-53.66-16.856-38.108 7.431-66.965 41.054-66.965 81.304v71.752h147.924c-.416-3.862-.635-7.781-.635-11.752-.001-50.243 34.184-92.645 80.515-105.187z"/><path d="m512.5 369.793v-71.752c0-40.25-28.857-73.873-66.965-81.304-15.229 10.618-33.728 16.856-53.66 16.856-19.937 0-38.44-6.241-53.671-16.864-22.331 4.358-41.479 17.712-53.508 36.125 46.331 12.542 80.516 54.944 80.516 105.187 0 3.97-.219 7.89-.635 11.752z"/><path d="m256.25 279.079c-43.54 0-78.962 35.422-78.962 78.962s35.422 78.962 78.962 78.962 78.962-35.422 78.962-78.962-35.422-78.962-78.962-78.962zm-18.188 119.374-34.512-43.823 23.568-18.561 16.153 20.511 44.745-34.449 18.301 23.771z"/><circle cx="391.875" cy="139.545" r="64.048"/><circle cx="120.625" cy="139.545" r="64.048"/></g></svg>