<svg id="Capa_1" enable-background="new 0 0 512 512" height="512" viewBox="0 0 512 512" width="512" xmlns="http://www.w3.org/2000/svg"><g><path d="m512 285.815c0-47.626-32.834-87.724-77.054-98.858 11.587-13.488 18.613-31.001 18.613-50.136 0-42.489-34.568-77.058-77.059-77.058s-77.059 34.568-77.059 77.058c0 19.142 7.032 36.662 18.627 50.152-26.152 6.584-48.318 23.285-62.068 45.698-13.75-22.413-35.916-39.114-62.068-45.698 11.595-13.49 18.627-31.01 18.627-50.152 0-42.489-34.568-77.058-77.059-77.058s-77.059 34.568-77.059 77.058c0 19.134 7.026 36.648 18.613 50.136-44.22 11.134-77.054 51.231-77.054 98.858v70.412h155.593c2.364 53.341 46.493 96.01 100.407 96.01s98.043-42.669 100.407-96.01h155.593zm-135.5-196.052c25.948 0 47.059 21.11 47.059 47.058s-21.11 47.059-47.059 47.059-47.059-21.11-47.059-47.059c0-25.947 21.111-47.058 47.059-47.058zm-241 0c25.948 0 47.059 21.11 47.059 47.058s-21.11 47.059-47.059 47.059-47.059-21.11-47.059-47.059c0-25.947 21.111-47.058 47.059-47.058zm23.268 236.464h-128.768v-40.412c0-39.665 32.271-71.936 71.937-71.936h67.127c28.154 0 52.554 16.27 64.357 39.89-36.348 8.376-65.222 36.521-74.653 72.458zm97.232 96.01c-38.881 0-70.513-31.632-70.513-70.513s31.632-70.513 70.513-70.513 70.513 31.632 70.513 70.513-31.632 70.513-70.513 70.513zm226-96.01h-128.768c-9.431-35.937-38.305-64.082-74.653-72.458 11.803-23.621 36.204-39.89 64.357-39.89h67.127c39.666 0 71.937 32.271 71.937 71.936z"/><path d="m243.171 350.538-16.153-20.511-23.569 18.56 34.513 43.824 68.255-52.551-18.301-23.772z"/></g></svg>