<svg id="Capa_1" enable-background="new 0 0 512 512" height="512" viewBox="0 0 512 512" width="512" xmlns="http://www.w3.org/2000/svg"><g><g><path d="m256.004 280.035v81.87h-256.004v-81.87c0-51 41.34-92.354 92.34-92.354h71.31c50.999 0 92.354 41.354 92.354 92.354z" fill="#759ae9"/><path d="m256.004 280.035v81.87h-128.009v-174.224h35.655c50.999 0 92.354 41.354 92.354 92.354z" fill="#5772c7"/><path d="m202.604 130.441c0 41.205-33.405 74.61-74.61 74.61s-74.595-33.405-74.595-74.61c0-41.19 33.39-74.595 74.595-74.595s74.61 33.405 74.61 74.595z" fill="#eac2b7"/><path d="m202.604 130.441c0 41.205-33.405 74.61-74.61 74.61v-149.205c41.205 0 74.61 33.405 74.61 74.595z" fill="#ebae9c"/><path d="m512 280.035v81.87h-256.004v-81.87c0-51 41.34-92.354 92.34-92.354h71.31c50.999 0 92.354 41.354 92.354 92.354z" fill="#e79e25"/><path d="m512 280.035v81.87h-128.009v-174.224h35.655c50.999 0 92.354 41.354 92.354 92.354z" fill="#dc7f1f"/><path d="m458.6 130.441c0 41.205-33.405 74.61-74.61 74.61s-74.595-33.405-74.595-74.61c0-41.19 33.39-74.595 74.595-74.595 41.206 0 74.61 33.405 74.61 74.595z" fill="#af7d5b"/><path d="m458.6 130.441c0 41.205-33.405 74.61-74.61 74.61v-149.205c41.206 0 74.61 33.405 74.61 74.595z" fill="#985e34"/></g><path d="m357.98 354.184c0 56.23-45.75 101.97-101.98 101.97s-101.98-45.74-101.98-101.97c0-56.24 45.75-101.98 101.98-101.98s101.98 45.74 101.98 101.98z" fill="#a3b431"/><path d="m357.98 354.184c0 56.23-45.75 101.97-101.98 101.97v-203.95c56.23 0 101.98 45.74 101.98 101.98z" fill="#829427"/><path d="m315.61 336.934-59.61 45.89-21.12 16.26-38.49-48.86 23.57-18.56 20.13 25.55 15.91-12.25 41.31-31.81z" fill="#ebf1f8"/><path d="m315.61 336.934-59.61 45.89v-37.86l41.31-31.81z" fill="#cadaf6"/></g></svg>