<svg id="Capa_1" enable-background="new 0 0 512 512" height="512" viewBox="0 0 512 512" width="512" xmlns="http://www.w3.org/2000/svg"><g><path d="m273.87 336.45c0 6.1-1.55 12.28-4.82 17.94-9.92 17.19-31.9 23.08-49.09 13.15l-94.53-54.57v103.34h-125.43v-150.13c0-17.31 7.02-32.99 18.37-44.34s27.03-18.37 44.35-18.37c8.42 0 16.45 1.67 23.78 4.69 2.68 1.09 5.27 2.37 7.75 3.82l.01-.01 161.64 93.32c11.53 6.66 17.97 18.74 17.97 31.16z" fill="#759ae9"/><path d="m512 266.18v150.13h-125.43v-103.34l-94.53 54.57c-5.66 3.27-11.84 4.82-17.94 4.82-12.42 0-24.5-6.44-31.15-17.97-9.92-17.19-4.04-39.17 13.15-49.1l161.64-93.32.01.01c2.48-1.45 5.07-2.73 7.75-3.82 7.33-3.02 15.36-4.69 23.78-4.69 34.64 0 62.72 28.08 62.72 62.71z" fill="#dc7f1f"/><path d="m273.87 336.45c0 6.1-1.55 12.28-4.82 17.94-9.92 17.19-31.9 23.08-49.09 13.15l-94.53-54.57v103.34h-38.93v-208.15c2.68 1.09 5.27 2.37 7.75 3.82l.01-.01 161.64 93.32c11.53 6.66 17.97 18.74 17.97 31.16z" fill="#5772c7"/><path d="m425.5 208.16v208.15h-38.93v-103.34l-94.53 54.57c-5.66 3.27-11.84 4.82-17.94 4.82-12.42 0-24.5-6.44-31.15-17.97-9.92-17.19-4.04-39.17 13.15-49.1l161.64-93.32.01.01c2.48-1.45 5.07-2.73 7.75-3.82z" fill="#e79e25"/><path d="m151.23 160.42c0 35.75-28.98 64.74-64.73 64.74s-64.73-28.99-64.73-64.74 28.98-64.73 64.73-64.73 64.73 28.98 64.73 64.73z" fill="#eac2b7"/><path d="m490.23 160.42c0 35.75-28.98 64.74-64.73 64.74s-64.73-28.99-64.73-64.74 28.98-64.73 64.73-64.73 64.73 28.98 64.73 64.73z" fill="#985e34"/><path d="m151.23 160.42c0 35.75-28.98 64.74-64.73 64.74v-129.47c35.75 0 64.73 28.98 64.73 64.73z" fill="#ebae9c"/><path d="m425.5 95.69v129.47c-35.75 0-64.73-28.99-64.73-64.74s28.98-64.73 64.73-64.73z" fill="#af7d5b"/></g></svg>