<svg id="Capa_1" enable-background="new 0 0 512 512" height="512" viewBox="0 0 512 512" width="512" xmlns="http://www.w3.org/2000/svg"><g><path d="m423.829 85.942c-34.202 0-62.028 27.826-62.028 62.028 0 34.203 27.826 62.029 62.028 62.029 34.203 0 62.029-27.826 62.029-62.029 0-34.202-27.826-62.028-62.029-62.028z"/><path d="m512 426.058v-150.13c0-23.613-13.061-44.155-32.344-54.848-15.495 11.861-34.851 18.92-55.827 18.92-10.279 0-20.17-1.695-29.409-4.819l-138.316 79.857c-17.189 9.924-23.079 31.904-13.155 49.094 6.656 11.529 18.738 17.975 31.158 17.975 6.098 0 12.276-1.553 17.936-4.821l94.526-54.574v103.347h125.431z"/><path d="m210.381 329.095c3.119-11.639 9.214-21.968 17.635-30.154l-110.436-63.761c-9.239 3.124-19.13 4.819-29.409 4.819-20.98 0-40.34-7.062-55.837-18.928-19.279 10.697-32.334 31.246-32.334 54.857v150.131h125.431v-103.348l88.896 51.324c-6.579-14.04-8.006-29.787-3.946-44.94z"/><path d="m88.17 85.942c-34.203 0-62.029 27.826-62.029 62.028 0 34.203 27.826 62.029 62.029 62.029s62.029-27.826 62.029-62.029c.001-34.202-27.825-62.028-62.029-62.028z"/></g></svg>