<svg id="Capa_1" enable-background="new 0 0 512 512" height="512" viewBox="0 0 512 512" width="512" xmlns="http://www.w3.org/2000/svg"><g><path d="m482.576 214.853c17.86-13.53 29.424-34.957 29.424-59.04 0-40.826-33.215-74.041-74.041-74.041s-74.04 33.215-74.04 74.041c0 23.849 11.346 45.087 28.91 58.637l-136.829 78.998-136.83-78.998c17.565-13.55 28.911-34.788 28.911-58.637 0-40.826-33.214-74.041-74.041-74.041s-74.04 33.215-74.04 74.041c0 24.083 11.563 45.51 29.424 59.04-17.861 13.531-29.424 34.958-29.424 59.041v156.334h148.081v-86.311l66.487 38.386c11.297 6.522 24.457 8.254 37.056 4.879 1.482-.397 2.923-.883 4.344-1.408 1.438.533 2.907 1.006 4.407 1.408 12.6 3.375 25.759 1.645 37.056-4.879l66.487-38.386v86.311h148.082v-156.334c0-24.083-11.564-45.51-29.424-59.041zm-44.617-103.081c24.284 0 44.041 19.757 44.041 44.041s-19.757 44.04-44.041 44.04-44.04-19.756-44.04-44.04 19.756-44.041 44.04-44.041zm-407.959 44.041c0-24.284 19.756-44.041 44.041-44.041s44.041 19.757 44.041 44.041-19.756 44.04-44.041 44.04-44.041-19.756-44.041-44.04zm88.081 136.144v108.271h-88.081v-126.334c0-24.284 19.756-44.041 44.041-44.041 7.777 0 15.43 2.065 22.131 5.973l135.474 78.203c-2.556 4.08-4.518 8.562-5.8 13.345-2.424 9.045-2.2 18.376.524 27.103zm363.919 108.271h-88.081v-108.271l-111.487 64.366c-8.995 5.191-20.535 2.101-25.727-6.894-2.515-4.356-3.183-9.432-1.881-14.291 1.302-4.858 4.418-8.92 8.774-11.436l152.23-87.877c6.701-3.907 14.354-5.973 22.131-5.973 24.284 0 44.041 19.757 44.041 44.041z"/></g></svg>